<svg width="34" height="34" viewBox="0 0 34 34" fill="none" xmlns="http://www.w3.org/2000/svg">
<path d="M30.5428 15.2153L28.6161 12.977C28.2478 12.552 27.9503 11.7586 27.9503 11.192V8.78362C27.9503 7.28195 26.7178 6.04945 25.2161 6.04945H22.8078C22.2553 6.04945 21.4478 5.75195 21.0228 5.38362L18.7844 3.45695C17.8069 2.62112 16.2061 2.62112 15.2144 3.45695L12.9903 5.39779C12.5653 5.75195 11.7578 6.04945 11.2053 6.04945H8.75443C7.25276 6.04945 6.02026 7.28195 6.02026 8.78362V11.2061C6.02026 11.7586 5.72276 12.552 5.36859 12.977L3.45609 15.2295C2.63443 16.207 2.63443 17.7936 3.45609 18.7711L5.36859 21.0236C5.72276 21.4486 6.02026 22.242 6.02026 22.7945V25.217C6.02026 26.7186 7.25276 27.9511 8.75443 27.9511H11.2053C11.7578 27.9511 12.5653 28.2486 12.9903 28.617L15.2286 30.5436C16.2061 31.3795 17.8069 31.3795 18.7986 30.5436L21.0369 28.617C21.4619 28.2486 22.2553 27.9511 22.8219 27.9511H25.2303C26.7319 27.9511 27.9644 26.7186 27.9644 25.217V22.8086C27.9644 22.2561 28.2619 21.4486 28.6303 21.0236L30.5569 18.7853C31.3786 17.8078 31.3786 16.1928 30.5428 15.2153ZM22.8928 14.3228L16.0503 21.1653C15.8519 21.3636 15.5828 21.477 15.2994 21.477C15.0161 21.477 14.7469 21.3636 14.5486 21.1653L11.1203 17.737C10.7094 17.3261 10.7094 16.6461 11.1203 16.2353C11.5311 15.8245 12.2111 15.8245 12.6219 16.2353L15.2994 18.9128L21.3911 12.8211C21.8019 12.4103 22.4819 12.4103 22.8928 12.8211C23.3036 13.232 23.3036 13.912 22.8928 14.3228Z" fill="#019672"/>
</svg>
