<svg width="36" height="37" viewBox="0 0 36 37" fill="none" xmlns="http://www.w3.org/2000/svg">
<path d="M24.3 32.043H10.3971C9.48833 32.043 9.03397 32.043 8.82357 31.8633C8.64102 31.7074 8.54414 31.4735 8.56297 31.2341C8.58468 30.9583 8.90596 30.637 9.54853 29.9944L22.3029 17.24C22.897 16.646 23.194 16.349 23.5365 16.2377C23.8377 16.1398 24.1623 16.1398 24.4635 16.2377C24.806 16.349 25.103 16.646 25.6971 17.24L31.5 23.043V24.843M24.3 32.043C26.8202 32.043 28.0804 32.043 29.043 31.5525C29.8897 31.1211 30.5781 30.4327 31.0095 29.5859C31.5 28.6233 31.5 27.3632 31.5 24.843M24.3 32.043H11.7C9.17976 32.043 7.91965 32.043 6.95704 31.5525C6.11031 31.1211 5.4219 30.4327 4.99047 29.5859C4.5 28.6233 4.5 27.3632 4.5 24.843V12.243C4.5 9.72273 4.5 8.46261 4.99047 7.50001C5.4219 6.65328 6.11031 5.96487 6.95704 5.53344C7.91965 5.04297 9.17976 5.04297 11.7 5.04297H24.3C26.8202 5.04297 28.0804 5.04297 29.043 5.53344C29.8897 5.96487 30.5781 6.65328 31.0095 7.50001C31.5 8.46261 31.5 9.72273 31.5 12.243V24.843M15.75 13.293C15.75 14.9498 14.4069 16.293 12.75 16.293C11.0931 16.293 9.75 14.9498 9.75 13.293C9.75 11.6361 11.0931 10.293 12.75 10.293C14.4069 10.293 15.75 11.6361 15.75 13.293Z" stroke="#FFA500" stroke-width="2" stroke-linecap="round" stroke-linejoin="round"/>
</svg>
