<svg width="22" height="21" viewBox="0 0 22 21" fill="none" xmlns="http://www.w3.org/2000/svg">
<path d="M7.55295 7.375L13.9418 13.625M13.9418 7.375L7.55295 13.625M6.27517 19.875H15.2196C17.0087 19.875 17.9032 19.875 18.5865 19.5344C19.1876 19.2348 19.6763 18.7567 19.9826 18.1687C20.3307 17.5002 20.3307 16.6252 20.3307 14.875V6.125C20.3307 4.37484 20.3307 3.49975 19.9826 2.83128C19.6763 2.24327 19.1876 1.76521 18.5865 1.4656C17.9032 1.125 17.0087 1.125 15.2196 1.125H6.27517C4.48612 1.125 3.59159 1.125 2.90826 1.4656C2.30719 1.76521 1.8185 2.24327 1.51224 2.83128C1.16406 3.49975 1.16406 4.37484 1.16406 6.125V14.875C1.16406 16.6252 1.16406 17.5002 1.51224 18.1687C1.8185 18.7567 2.30719 19.2348 2.90826 19.5344C3.59159 19.875 4.48612 19.875 6.27517 19.875Z" stroke="#B82C00" stroke-width="1.5" stroke-linecap="round" stroke-linejoin="round"/>
</svg>
