<svg width="21" height="21" viewBox="0 0 21 21" fill="none" xmlns="http://www.w3.org/2000/svg">
<path d="M0.998047 6.125C0.998047 4.37484 0.998047 3.49975 1.34622 2.83128C1.65248 2.24327 2.14117 1.76521 2.74224 1.4656C3.42557 1.125 4.3201 1.125 6.10916 1.125H15.0536C16.8427 1.125 17.7372 1.125 18.4205 1.4656C19.0216 1.76521 19.5103 2.24327 19.8165 2.83128C20.1647 3.49975 20.1647 4.37484 20.1647 6.125V14.875C20.1647 16.6252 20.1647 17.5002 19.8165 18.1687C19.5103 18.7567 19.0216 19.2348 18.4205 19.5344C17.7372 19.875 16.8427 19.875 15.0536 19.875H6.10916C4.3201 19.875 3.42557 19.875 2.74224 19.5344C2.14117 19.2348 1.65248 18.7567 1.34622 18.1687C0.998047 17.5002 0.998047 16.6252 0.998047 14.875V6.125Z" stroke="#4A5254" stroke-width="1.5" stroke-linecap="round" stroke-linejoin="round"/>
<path fill-rule="evenodd" clip-rule="evenodd" d="M7.49805 14H14.498C14.6307 14 14.7578 14.0527 14.8516 14.1464C14.9454 14.2402 14.998 14.3674 14.998 14.5C14.998 14.6326 14.9454 14.7598 14.8516 14.8536C14.7578 14.9473 14.6307 15 14.498 15H7.49805C7.36544 15 7.23826 14.9473 7.14449 14.8536C7.05073 14.7598 6.99805 14.6326 6.99805 14.5C6.99805 14.3674 7.05073 14.2402 7.14449 14.1464C7.23826 14.0527 7.36544 14 7.49805 14ZM6.99805 11.5L11.998 6.5L13.498 8L8.49805 13H6.99805V11.5ZM12.498 6L13.498 5L14.998 6.5L13.9975 7.5005L12.498 6Z" fill="#4A5254"/>
</svg>
